PathFileType	4	(X/Y/Z)	D:\TRACE\spot_10-12-23\spot_body_motion_2_1-platform.trc
DataRate	CameraRate	NumFrames	NumMarkers	Units	OrigDataRate	OrigDataStartFrame	OrigNumFrames
100.00	100.00	      35	5	mm	100.00	2626	      7000
Frame#	Time	Left_Front			Right_Front			Left_Aft			Right_Aft			Post			
		X1	Y1	Z1	X2	Y2	Z2	X3	Y3	Z3	X4	Y4	Z4	X5	Y5	Z5	

2626	26.250	-823.55280	-53.66485	-653.30524	749.20563	-49.27321	-646.22614	-740.75323	45.47441	480.32861	676.12189	57.59380	566.42346	-40.01982	652.08856	-1037.70276	
2627	26.260	-823.00134	-53.94867	-653.34570	749.69263	-49.47738	-646.33997	-740.05737	45.75835	480.30832	676.76416	57.77079	566.26819	-39.43555	651.79272	-1038.25745	
2628	26.270	-822.29572	-54.29829	-653.35510	750.14740	-49.74227	-646.39844	-739.54297	45.89762	480.26483	677.44434	57.89585	565.98724	-38.97374	651.36450	-1038.84729	
2629	26.280	-821.47754	-54.78384	-653.36951	750.85126	-50.07717	-646.42914	-738.87085	46.02301	480.16724	678.45184	58.23371	565.75916	-38.06283	650.81262	-1039.33069	
2630	26.290	-820.90039	-54.98551	-653.39221	751.48389	-50.26425	-646.41559	-738.30804	46.26262	480.10831	679.19391	58.47557	565.71674	-37.48214	650.36865	-1039.91980	
2631	26.300	-820.44867	-55.16830	-653.35187	752.06934	-50.51395	-646.54761	-737.59363	46.34555	480.03354	680.01410	58.59974	565.64056	-37.06331	650.11566	-1040.21631	
2632	26.310	-819.59558	-55.46400	-653.33203	752.55255	-50.59016	-646.67017	-736.84448	46.48137	479.92444	680.34308	58.62574	565.59296	-36.59609	649.83539	-1040.57153	
2633	26.320	-818.87909	-55.62563	-653.33221	753.41858	-50.55402	-646.73462	-736.23236	46.55371	479.93991	681.08667	58.70697	565.59015	-35.74437	649.77136	-1040.89539	
2634	26.330	-818.15662	-55.67929	-653.37421	754.36316	-50.41177	-646.56097	-735.41455	46.65129	480.01117	681.93170	58.83730	565.55304	-34.93139	649.67218	-1041.10754	
2635	26.340	-817.56232	-55.49652	-653.42743	754.93201	-50.34527	-646.52655	-734.81274	46.64755	479.96753	682.67798	58.85761	565.56750	-34.35486	649.51532	-1041.21155	
2636	26.350	-816.81744	-55.64811	-653.42804	755.67676	-50.52953	-646.60913	-734.24982	46.66062	479.90332	683.09595	58.93900	565.65887	-33.65911	649.45068	-1041.08069	
2637	26.360	-815.91345	-55.90790	-653.44690	756.39221	-50.58766	-646.80066	-733.37360	46.74648	479.97922	683.93976	58.95929	565.54053	-32.89532	649.58795	-1041.01099	
2638	26.370	-815.17633	-55.69033	-653.34558	757.21545	-50.63768	-646.59406	-732.59479	46.74603	479.92984	684.91382	58.94500	565.55585	-31.88053	649.65070	-1041.01331	
2639	26.380	-814.40527	-55.46780	-653.38782	757.91846	-50.58114	-646.47021	-732.02252	46.69817	479.91727	685.70764	58.76867	565.61517	-31.01962	649.78357	-1040.98608	
2640	26.390	-813.66516	-55.20485	-653.42877	758.77539	-50.40023	-646.64575	-731.02142	46.66309	479.99683	686.36273	58.72972	565.68402	-30.45552	649.82397	-1040.86304	
2641	26.400	-812.96979	-55.13978	-653.40332	759.40344	-50.16021	-646.70752	-730.17297	46.33813	479.90820	687.14282	58.55885	565.66705	-29.68689	650.00916	-1040.60010	
2642	26.410	-812.09052	-54.85134	-653.34875	760.34528	-49.83117	-646.53998	-729.42963	46.24797	480.07068	687.96252	58.30380	565.79700	-28.90996	650.51251	-1040.30530	
2643	26.420	-811.38300	-54.34047	-653.30463	761.32996	-49.73248	-646.37738	-728.49829	46.05435	480.30524	688.85413	58.17241	566.01752	-27.96868	650.94543	-1039.93066	
2644	26.430	-810.31842	-54.21400	-653.26819	761.95215	-49.49021	-646.33807	-727.72980	45.86153	480.27856	689.68274	58.01867	565.99841	-27.19752	651.39154	-1039.49805	
2645	26.440	-809.39752	-53.91584	-653.30200	762.91388	-48.96252	-646.47522	-726.86145	45.76766	480.43030	690.59320	57.67093	566.06696	-26.26550	652.08899	-1039.07581	
2646	26.450	-808.38416	-53.50258	-653.36615	763.82501	-48.48917	-646.38202	-725.96912	45.40382	480.51889	691.51709	57.32755	566.16211	-25.53655	652.55475	-1038.75305	
2647	26.460	-807.93103	-52.91750	-653.09753	764.61096	-48.06631	-646.18329	-725.19672	45.01556	480.60184	692.19312	56.84972	566.24908	-24.51964	653.41992	-1038.04102	
2648	26.470	-807.06738	-52.55448	-652.84961	765.45178	-47.65528	-646.51440	-724.30444	44.75538	480.71078	693.02881	56.53966	566.32397	-23.56167	654.21826	-1037.57092	
2649	26.480	-805.72742	-52.17277	-652.96527	766.37152	-47.07739	-646.24402	-723.30200	44.49286	480.81693	694.36334	56.26397	566.59607	-22.83608	654.89435	-1036.97070	
2650	26.490	-804.93488	-51.65057	-652.83221	767.50592	-46.49978	-645.92694	-722.41663	44.14606	480.98044	695.14301	55.81007	566.86835	-21.98491	655.84930	-1036.17310	
2651	26.500	-804.13519	-50.83764	-652.84357	768.53876	-46.02832	-645.81067	-721.35388	43.65110	481.06610	695.84729	55.25446	567.10889	-20.72853	656.71338	-1035.55969	
2652	26.510	-803.21625	-50.20364	-652.71344	769.37555	-45.53133	-645.90570	-720.20013	43.24298	481.24222	697.11066	54.94423	567.29120	-19.79667	657.46252	-1034.73218	
2653	26.520	-802.15930	-49.80355	-652.57819	770.29126	-44.93657	-645.79797	-719.38422	42.77332	481.58630	697.51227	54.03657	567.43152	-18.77424	658.52850	-1033.96912	
2654	26.530	-801.26489	-48.82038	-652.45367	771.25970	-44.01440	-645.62952	-718.35266	42.43662	481.74414	698.96387	54.12946	567.49445	-17.96809	659.49060	-1033.07239	
2655	26.540	-800.17627	-48.39178	-652.46228	772.17828	-43.57594	-645.64142	-717.26324	42.03519	481.89334	700.12164	53.58594	567.65161	-16.86262	660.65204	-1032.04260	
2656	26.550	-799.13385	-47.83019	-652.23193	773.40253	-42.64437	-645.42749	-716.30328	41.61963	482.23535	701.00531	52.89007	567.84406	-15.83710	661.63623	-1031.13440	
2657	26.560	-798.15472	-47.04814	-652.16132	774.58221	-42.14813	-645.16168	-715.39001	41.19837	482.36630	701.49963	52.05443	568.30841	-14.91514	663.01239	-1030.00452	
2658	26.570	-797.05780	-46.10967	-652.11969	775.27484	-41.47786	-645.03058	-714.38086	40.68190	482.54288	702.68835	51.42477	568.50671	-14.20530	664.07660	-1029.15515	
2659	26.580	-796.06879	-45.35154	-652.04224	776.35034	-40.38010	-645.37012	-713.29443	40.03759	482.81552	703.99603	50.94705	568.76318	-12.92642	665.30273	-1028.02368	
2660	26.590	-794.60577	-44.82641	-652.01776	777.25299	-39.75340	-644.85193	-712.39117	39.55622	482.97318	705.12274	50.33869	569.14044	-11.95599	666.96399	-1027.05115	
